<svg width="29" height="18" viewBox="0 0 29 18" fill="none" xmlns="http://www.w3.org/2000/svg">
<rect width="29" height="18" rx="9" fill="#3F88F7"/>
<path d="M9.93324 14.1293C9.39157 14.1293 8.90376 14.0215 8.46982 13.8061C8.03587 13.5907 7.68809 13.2952 7.42649 12.9197C7.16489 12.5443 7.02178 12.1165 6.99716 11.6364H8.10511C8.1482 12.0642 8.34209 12.4181 8.68679 12.6982C9.03456 12.9751 9.45005 13.1136 9.93324 13.1136C10.321 13.1136 10.6657 13.0228 10.9673 12.8413C11.272 12.6597 11.5105 12.4104 11.6829 12.0934C11.8583 11.7733 11.946 11.4117 11.946 11.0085C11.946 10.5961 11.8552 10.2283 11.6737 9.90518C11.4951 9.57895 11.2489 9.32197 10.935 9.13423C10.6211 8.9465 10.2625 8.85109 9.85938 8.84801C9.57008 8.84493 9.27308 8.88956 8.9684 8.98189C8.66371 9.07114 8.41288 9.18655 8.21591 9.32812L7.14489 9.19886L7.71733 4.54545H12.6293V5.56108H8.67756L8.34517 8.34943H8.40057C8.59446 8.19555 8.83759 8.06783 9.12997 7.96626C9.42235 7.8647 9.72704 7.81392 10.044 7.81392C10.6226 7.81392 11.1381 7.95241 11.5906 8.2294C12.046 8.50331 12.4031 8.87879 12.6616 9.35582C12.9232 9.83286 13.054 10.3776 13.054 10.9901C13.054 11.5933 12.9186 12.1319 12.6477 12.6058C12.38 13.0767 12.0107 13.4491 11.5398 13.723C11.0689 13.9938 10.5334 14.1293 9.93324 14.1293ZM17.9717 14.1293C17.2761 14.1293 16.6837 13.94 16.1943 13.5614C15.705 13.1798 15.3311 12.6274 15.0725 11.9041C14.814 11.1778 14.6847 10.3007 14.6847 9.27273C14.6847 8.25095 14.814 7.37843 15.0725 6.65518C15.3341 5.92886 15.7096 5.37488 16.199 4.99325C16.6914 4.60855 17.2823 4.41619 17.9717 4.41619C18.6611 4.41619 19.2504 4.60855 19.7398 4.99325C20.2322 5.37488 20.6077 5.92886 20.8662 6.65518C21.1278 7.37843 21.2586 8.25095 21.2586 9.27273C21.2586 10.3007 21.1294 11.1778 20.8708 11.9041C20.6123 12.6274 20.2384 13.1798 19.749 13.5614C19.2597 13.94 18.6672 14.1293 17.9717 14.1293ZM17.9717 13.1136C18.6611 13.1136 19.1966 12.7812 19.5782 12.1165C19.9598 11.4517 20.1507 10.5038 20.1507 9.27273C20.1507 8.45407 20.0629 7.75698 19.8875 7.18146C19.7152 6.60594 19.4659 6.16738 19.1396 5.86577C18.8165 5.56416 18.4272 5.41335 17.9717 5.41335C17.2884 5.41335 16.7545 5.75035 16.3698 6.42436C15.9851 7.09529 15.7927 8.04474 15.7927 9.27273C15.7927 10.0914 15.8789 10.7869 16.0512 11.3594C16.2236 11.9318 16.4713 12.3673 16.7945 12.6658C17.1207 12.9644 17.5131 13.1136 17.9717 13.1136Z" fill="white"/>
</svg>
